# xmcd
#
# Track frame offsets: 
#        150
#        12927
#        28770
#        48095
#        69010
#        86630
#        106537
#        122980
#        139875
#        163990
#        189235
#        221560
#        237315
#        255270
#        283022
#
# Disc length: 4458 seconds
#
# Revision: 1
# Processed by: cddbd v1.5.2PL0 Copyright (c) Steve Scherf et al.
# Submitted via: ExactAudioCopyFreeDBPlugin 1.0
#
DISCID=c711680f
DTITLE=Various Artist - Fifa 2000 [CD1)
DYEAR=1999
DGENRE=New Age
TTITLE0=Robbie Williams - Its Only Us
TTITLE1=Stereophonics - Pick A Part That's New
TTITLE2=Feeder - Yesterday Went Too Soon
TTITLE3=New Radicals - You Get What You Give
TTITLE4=Gomez - Bting It On
TTITLE5=Supergrass - Moving
TTITLE6=Bran Van 3000 - Drinking In LA
TTITLE7=Morcheeba - Part Of The Process
TTITLE8=Massive Attack - Angel
TTITLE9=Placebo - Pure Morning (Les Rythmes Digitales Remix)
TTITLE10=Mansun - Wide Open Space (Perfecto Mix)
TTITLE11=Bentley Rhythm Ace - Bentley's Going To Sort You Out
TTITLE12=Fatboy Slim - The Rockefeller Skank
TTITLE13=Gay Dad - Joy!
TTITLE14=Data Track
EXTD=YEAR: 1999
EXTT0=
EXTT1=
EXTT2=
EXTT3=
EXTT4=
EXTT5=
EXTT6=
EXTT7=
EXTT8=
EXTT9=
EXTT10=
EXTT11=
EXTT12=
EXTT13=
EXTT14=
PLAYORDER=
